<?xml version="1.0" encoding="UTF-8"?>
<svg width="22px" height="16px" viewBox="0 0 22 16" version="1.1" xmlns="http://www.w3.org/2000/svg" xmlns:xlink="http://www.w3.org/1999/xlink">
    <title>ic-email</title>
    <g id="1D.Company-Account" stroke="none" stroke-width="1" fill="none" fill-rule="evenodd">
        <g id="MO_0.02_Sign-Up-With-Email" transform="translate(-178.000000, -494.000000)" fill="#68768C" fill-rule="nonzero">
            <g id="ic-email" transform="translate(178.000000, 494.000000)">
                <path d="M19.0560615,2.84217094e-14 L2.27850537,2.84217094e-14 C1.02647498,-0.0042839094 0.00720975071,1.00565612 0,2.25767314 L0,13.7471577 C0.00774220168,14.9981739 1.02748182,16.0064143 2.27850537,16 L19.0560615,16 C20.3070851,16.0064143 21.3268247,14.9981739 21.3345669,13.7471577 L21.3345669,2.25767314 C21.3273572,1.00565612 20.3080919,-0.0042839094 19.0560615,2.84217094e-14 Z M6.50586002,10.5950637 L4.53034739,12.5492456 C4.37825185,12.7014771 4.17203382,12.7872415 3.95684274,12.7877615 C3.7400347,12.7874892 3.53206661,12.7017938 3.37800541,12.5492456 C3.22568617,12.3981444 3.14001097,12.1924748 3.14001097,11.9779225 C3.14001097,11.7633702 3.22568617,11.5577005 3.37800541,11.4065994 L5.35303326,9.45193266 C5.67337619,9.13845054 6.1855171,9.13845054 6.50586002,9.45193266 C6.65832865,9.60305265 6.74409892,9.80882646 6.74409892,10.0234982 C6.74409892,10.2381698 6.65832865,10.4439437 6.50586002,10.5950637 L6.50586002,10.5950637 Z M10.6066849,9.35158259 C9.97346335,9.3519013 9.35892881,9.13702789 8.86387069,8.74220247 L3.63494325,4.53036105 C3.46679936,4.39687946 3.35949287,4.20130974 3.33723703,3.98778133 C3.31498118,3.77425292 3.37965131,3.56075826 3.51665489,3.39547146 C3.80081253,3.04817621 4.31226458,2.99594742 4.66075546,3.27863746 L9.8896829,7.48611579 C10.3088957,7.82138276 10.9044741,7.82138276 11.3236869,7.48611579 L16.8415482,3.04448467 C17.1922714,2.765614 17.7018809,2.81979105 17.9861336,3.16616656 C18.1227515,3.33161187 18.1871753,3.54500651 18.1649323,3.75841189 C18.1426893,3.97181728 18.0356445,4.16733993 17.8678452,4.30105615 L12.3494991,8.74268726 C11.8542467,9.13744247 11.2395297,9.35214895 10.6062001,9.35158259 L10.6066849,9.35158259 Z M18.1039372,12.6966213 C17.7836538,13.0097872 17.2718786,13.0097872 16.9515952,12.6966213 L14.8301613,10.5931245 C14.677601,10.4421521 14.5917588,10.2364343 14.5917588,10.0218014 C14.5917588,9.80716849 14.677601,9.60145066 14.8301613,9.45047829 C15.1498091,9.13575725 15.6628553,9.13575725 15.9825032,9.45047829 L18.1039372,11.5539751 C18.2571831,11.7051044 18.3434157,11.9113806 18.3433247,12.1266116 C18.3432335,12.3418426 18.2568262,12.5480457 18.1034524,12.6990452 L18.1039372,12.6966213 Z" id="Atom/Icon/UI/ic-email"></path>
            </g>
        </g>
    </g>
</svg>