<?xml version="1.0" encoding="UTF-8"?>
<svg width="16px" height="20px" viewBox="0 0 16 20" version="1.1" xmlns="http://www.w3.org/2000/svg" xmlns:xlink="http://www.w3.org/1999/xlink">
    <title>ic-password</title>
    <g id="1D.Company-Account" stroke="none" stroke-width="1" fill="none" fill-rule="evenodd">
        <g id="MO_0.02_Sign-Up-With-Email" transform="translate(-181.000000, -548.000000)" fill="#68768C" fill-rule="nonzero">
            <path d="M194.666056,555.166076 L194.382416,555.166076 L194.382416,553.344693 C194.35707,550.407402 191.985052,548.030937 189.047814,548 C187.590305,547.991751 186.189312,548.563379 185.153662,549.588967 C184.118013,550.614554 183.532735,552.009901 183.526845,553.467421 L183.526845,555.16653 L183.243206,555.16653 C182.013796,555.15771 181.009754,556.146697 181,557.3761 L181,562.917523 C181.021758,565.745933 183.332097,568.02127 186.16051,568 L191.749206,568 C194.577619,568.02127 196.887959,565.745933 196.909716,562.917523 L196.909716,557.3761 C196.900212,556.14634 195.895819,555.157004 194.666056,555.166076 L194.666056,555.166076 Z M190.107825,562.757066 C190.107825,563.393707 189.591726,563.909806 188.955085,563.909806 C188.318445,563.909806 187.802346,563.393707 187.802346,562.757066 L187.802346,560.408859 C187.804387,560.105105 187.927139,559.81463 188.143545,559.601465 C188.359951,559.388299 188.652244,559.269942 188.955994,559.272444 C189.260689,559.272052 189.553428,559.391008 189.771458,559.603851 C189.986221,559.815814 190.10733,560.10484 190.107825,560.406587 L190.107825,562.757066 Z M185.830478,555.166076 L185.830478,553.435148 C185.823492,551.760036 187.126959,550.371548 188.799175,550.272842 C189.647072,550.224164 190.47786,550.525176 191.097791,551.10568 C191.717722,551.686183 192.0726,552.495429 192.079664,553.344693 L192.079664,555.166076 L185.830478,555.166076 Z" id="ic-password"></path>
        </g>
    </g>
</svg>